<?xml version="1.0" standalone="no"?>
<!DOCTYPE svg PUBLIC "-//W3C//DTD SVG 20010904//EN"
 "http://www.w3.org/TR/2001/REC-SVG-20010904/DTD/svg10.dtd">
<svg version="1.0" xmlns="http://www.w3.org/2000/svg"
 width="512.000000pt" height="512.000000pt" viewBox="0 0 512.000000 512.000000"
 preserveAspectRatio="xMidYMid meet">

<g transform="translate(0.000000,512.000000) scale(0.100000,-0.100000)"
fill="#000000" stroke="none">
<path d="M4350 4356 c-218 -61 -375 -278 -358 -494 4 -43 2 -52 -10 -47 -8 3
-107 59 -221 124 -245 141 -275 156 -321 165 -45 8 -688 -69 -732 -87 -76 -32
-140 -117 -154 -205 -15 -92 37 -198 123 -252 60 -38 110 -45 238 -30 58 7
108 10 111 8 2 -3 -76 -65 -173 -139 -203 -153 -234 -190 -241 -287 -8 -113
41 -204 137 -254 59 -31 133 -37 202 -16 22 6 135 83 265 180 124 93 225 165
223 161 -2 -5 -74 -110 -160 -234 -130 -187 -184 -277 -327 -544 l-170 -320
-454 -5 c-502 -6 -480 -3 -551 -74 -53 -52 -72 -101 -72 -181 0 -81 18 -124
72 -178 45 -46 89 -66 167 -78 38 -6 266 -9 557 -7 493 3 494 3 541 26 71 35
105 81 212 283 54 101 107 199 118 217 l20 32 125 -201 c68 -110 127 -207 129
-214 3 -7 -80 -141 -184 -297 -103 -155 -194 -298 -200 -317 -20 -56 -15 -140
12 -196 77 -167 312 -196 428 -54 72 89 497 739 507 776 17 61 13 124 -13 178
-13 28 -109 189 -215 358 -155 251 -189 312 -181 327 5 10 109 171 229 359
121 187 229 358 240 380 24 46 41 144 34 185 -6 28 -5 29 23 22 139 -36 247
-26 363 30 202 99 312 333 256 549 -45 171 -191 316 -356 354 -60 14 -184 12
-239 -3z m231 -161 c72 -25 138 -82 178 -155 33 -60 36 -71 36 -150 0 -73 -4
-93 -28 -142 -76 -155 -267 -226 -418 -156 -76 35 -133 88 -166 156 -24 49
-28 69 -28 142 0 79 3 90 36 150 39 71 105 130 174 154 53 19 161 20 216 1z
m-869 -411 c268 -154 296 -173 371 -269 l32 -40 -35 22 c-20 12 -166 70 -325
128 -225 83 -305 108 -355 112 -40 3 -165 -7 -322 -26 -141 -17 -266 -31 -277
-31 -11 0 -35 13 -53 29 -43 39 -46 98 -6 137 25 26 38 28 335 65 169 21 320
36 335 34 14 -2 149 -75 300 -161z m-14 -309 c314 -115 332 -125 332 -194 0
-43 -33 -85 -75 -95 -16 -4 -103 23 -273 84 -138 49 -257 90 -265 90 -9 0
-128 -83 -265 -185 -218 -161 -255 -185 -287 -185 -74 0 -121 88 -79 149 29
41 572 441 600 441 13 0 154 -47 312 -105z m75 -409 c53 -19 115 -36 137 -38
22 -1 40 -5 40 -9 0 -4 -75 -124 -167 -266 -122 -189 -166 -266 -166 -288 0
-22 62 -130 221 -386 164 -263 222 -365 222 -388 0 -23 -57 -115 -239 -390
-132 -197 -250 -366 -262 -375 -35 -24 -83 -20 -118 10 -26 21 -31 33 -31 68
0 38 20 71 210 356 116 172 210 323 210 335 0 22 -353 601 -392 642 -24 26
-74 31 -101 11 -9 -7 -86 -143 -171 -303 -87 -164 -165 -297 -177 -305 -19
-13 -95 -15 -493 -18 -259 -2 -495 0 -525 3 -104 13 -147 101 -82 166 l29 29
466 0 465 0 25 23 c14 12 108 177 209 367 153 287 208 380 327 550 78 113 153
219 167 237 27 36 1 40 196 -31z"/>
<path d="M285 3645 c-40 -39 -32 -96 16 -120 23 -13 101 -15 463 -15 298 0
443 4 459 11 49 22 61 86 22 124 l-24 25 -456 0 -456 0 -24 -25z"/>
<path d="M1482 3663 c-15 -6 -42 -56 -42 -78 0 -9 13 -30 29 -46 l29 -29 152
0 152 0 29 29 c36 36 37 73 4 106 -24 25 -27 25 -182 24 -87 0 -164 -3 -171
-6z"/>
<path d="M990 3200 c-30 -30 -30 -83 1 -115 19 -19 35 -20 597 -23 317 -1 587
0 600 3 61 15 83 92 39 133 l-23 22 -597 0 c-584 0 -597 0 -617 -20z"/>
<path d="M785 2499 c-51 -29 -61 -90 -22 -127 23 -22 26 -22 451 -22 l427 0
24 25 c32 31 32 66 1 102 l-24 28 -419 2 c-292 2 -424 -1 -438 -8z"/>
<path d="M371 1954 c-28 -35 -26 -67 3 -101 l24 -28 309 -3 c169 -2 323 0 341
3 18 3 42 15 53 26 26 26 25 83 -1 109 -19 19 -33 20 -364 20 l-345 0 -20 -26z"/>
<path d="M1094 1320 c-28 -11 -54 -48 -54 -76 0 -12 9 -33 21 -48 l20 -26 759
0 759 0 20 26 c28 35 26 67 -3 101 l-24 28 -739 2 c-406 1 -748 -2 -759 -7z"/>
</g>
</svg>
