<?xml version="1.0" standalone="no"?>
<!DOCTYPE svg PUBLIC "-//W3C//DTD SVG 20010904//EN"
 "http://www.w3.org/TR/2001/REC-SVG-20010904/DTD/svg10.dtd">
<svg version="1.0" xmlns="http://www.w3.org/2000/svg"
 width="512.000000pt" height="512.000000pt" viewBox="0 0 512.000000 512.000000"
 preserveAspectRatio="xMidYMid meet">

<g transform="translate(0.000000,512.000000) scale(0.100000,-0.100000)"
fill="#000000" stroke="none">
<path d="M3320 4693 c-79 -42 -115 -103 -115 -192 1 -43 7 -77 19 -99 l17 -34
-53 -80 c-29 -45 -56 -85 -59 -91 -4 -6 -31 -1 -70 12 -210 72 -618 7 -928
-149 -53 -26 -197 -115 -321 -197 -294 -196 -362 -268 -422 -448 -20 -60 -23
-88 -22 -205 2 -233 47 -360 239 -670 59 -96 110 -180 112 -187 4 -11 -131
-193 -142 -193 -2 0 -26 13 -52 28 -306 178 -683 174 -984 -10 -111 -68 -249
-206 -317 -317 -235 -386 -171 -881 155 -1192 272 -260 666 -339 1012 -203
313 124 539 404 595 738 11 66 14 71 39 74 21 3 27 -1 27 -15 0 -10 7 -97 15
-193 8 -96 15 -185 15 -198 0 -13 11 -34 25 -47 l24 -25 311 0 311 0 26 26
c24 24 25 29 21 122 -3 80 -9 106 -31 148 -39 76 -70 108 -142 145 l-65 34 0
116 0 116 487 379 c267 209 491 382 498 386 7 5 15 -10 21 -43 l11 -50 -67
-49 c-191 -142 -319 -346 -371 -595 -22 -102 -15 -295 14 -405 94 -362 370
-628 733 -706 122 -26 305 -22 424 9 176 46 325 129 446 251 311 312 371 792
148 1169 -66 110 -211 257 -323 325 -238 145 -540 181 -794 95 -32 -11 -59
-17 -61 -14 -9 14 -36 204 -42 293 l-7 96 59 -5 c86 -8 140 10 195 66 72 72
88 156 45 247 -13 28 -38 62 -57 76 -18 15 -151 71 -296 125 -151 56 -263 103
-263 111 0 6 7 12 15 12 9 0 27 11 40 25 25 24 25 26 25 211 0 173 1 186 18
179 73 -29 196 -9 267 43 56 43 115 144 115 199 0 60 15 87 40 73 32 -17 70
-11 97 16 25 25 26 27 20 137 -8 170 -55 282 -163 391 -102 102 -221 154 -369
163 -85 5 -93 4 -145 -24z m285 -172 c88 -41 148 -99 191 -186 55 -112 48
-114 -98 -30 -70 40 -169 89 -220 110 -121 47 -145 78 -97 126 19 19 29 21 91
16 47 -4 91 -16 133 -36z m-168 -262 l48 -22 -83 -39 c-46 -22 -87 -38 -92
-36 -10 3 60 118 72 118 3 0 28 -10 55 -21z m247 -130 c20 -12 36 -23 36 -25
0 -3 -9 -22 -20 -44 -11 -22 -20 -59 -20 -82 0 -77 -58 -138 -130 -138 -65 0
-147 52 -187 120 l-22 37 107 46 c59 26 127 60 152 76 25 17 46 30 47 30 1 1
18 -8 37 -20z m-631 -92 c90 -44 147 -103 190 -195 31 -66 32 -71 35 -235 l4
-167 -173 2 -172 3 -34 100 c-34 104 -57 135 -99 135 -39 0 -205 -60 -298
-108 -114 -59 -225 -141 -342 -254 l-93 -90 -203 158 c-112 87 -205 159 -207
161 -12 9 54 59 242 185 346 231 504 296 832 342 17 2 78 3 137 2 101 -2 111
-5 181 -39z m-272 -634 c30 -87 38 -100 66 -113 l33 -15 0 -170 c0 -135 3
-175 15 -192 11 -16 93 -47 320 -123 288 -96 305 -103 305 -126 l0 -24 -369 0
-369 0 10 43 c23 97 -14 224 -87 299 -20 20 -110 92 -201 160 l-164 123 22 18
c64 51 128 96 171 122 46 27 195 95 208 95 4 0 22 -44 40 -97z m-982 -167
l215 -166 63 -163 c34 -89 62 -167 63 -174 0 -26 -274 -135 -347 -137 -34 -1
-36 2 -107 119 -112 185 -151 295 -162 455 -9 116 22 263 50 241 6 -4 108 -83
225 -175z m1401 -10 c0 -37 6 -60 18 -74 10 -13 124 -61 302 -127 157 -59 293
-114 303 -122 23 -22 22 -58 -4 -84 -38 -38 -117 -22 -464 94 l-310 104 -3
131 -3 132 81 0 80 0 0 -54z m-915 -119 c22 -17 44 -34 48 -37 5 -4 -15 -36
-44 -70 l-52 -63 -28 69 c-34 84 -35 92 -8 121 24 24 25 24 84 -20z m257 -193
c91 -71 117 -145 82 -234 l-16 -41 -130 3 -130 3 -23 60 -22 60 81 98 c44 53
84 97 89 97 5 0 36 -21 69 -46z m-239 -597 l97 -253 0 -446 c0 -513 -5 -484
90 -499 80 -12 133 -59 146 -126 l7 -33 -205 0 -204 0 -38 493 -37 492 -150
243 c-82 134 -147 247 -144 252 4 6 12 10 20 10 25 0 179 57 240 88 33 17 65
31 71 32 5 0 54 -114 107 -253z m137 159 c0 -11 -19 -15 -25 -6 -3 5 1 10 9
10 9 0 16 -2 16 -4z m1088 -6 c-1 -5 -220 -178 -485 -385 l-483 -374 0 193 0
193 -35 89 c-19 49 -35 93 -35 99 0 5 42 51 92 102 l93 93 428 0 c279 0 428
-3 425 -10z m-1619 -424 l92 -149 14 -191 c8 -105 17 -208 19 -229 4 -34 2
-38 -17 -35 -16 2 -23 11 -25 33 -18 175 -118 392 -243 530 l-49 52 57 72 c31
39 57 70 58 69 1 -2 44 -70 94 -152z m-727 100 c40 -8 103 -26 140 -39 67 -26
148 -68 148 -77 0 -3 -10 -18 -23 -33 l-22 -28 -70 35 c-421 208 -924 -41
-1019 -506 -49 -238 33 -493 212 -660 329 -308 846 -246 1096 132 45 68 93
189 102 258 l7 52 42 0 43 0 -13 -67 c-87 -453 -538 -740 -985 -627 -221 55
-428 227 -524 434 -57 125 -70 188 -70 340 0 159 13 220 79 355 154 317 513
497 857 431z m3040 0 c313 -62 546 -277 634 -586 25 -89 26 -308 0 -400 -108
-397 -497 -653 -896 -590 -166 27 -325 107 -443 226 -269 269 -311 688 -101
1005 40 61 184 209 202 209 5 0 13 -16 19 -35 11 -34 10 -35 -66 -112 -135
-137 -201 -301 -201 -498 0 -123 24 -227 75 -324 202 -384 674 -506 1035 -266
299 199 398 600 228 928 -31 61 -63 103 -123 162 -93 93 -160 135 -282 178
-82 29 -98 31 -223 31 -131 0 -176 -8 -271 -48 -13 -5 -19 1 -28 25 -6 18 -11
35 -11 40 0 9 109 45 175 58 77 14 196 13 277 -3z m-2571 -274 c94 -116 148
-230 174 -364 l13 -68 -44 0 c-39 0 -44 3 -44 23 0 83 -72 249 -150 345 l-51
63 23 29 c13 16 25 29 28 29 3 1 26 -25 51 -57z m-515 39 c50 -10 147 -43 173
-60 11 -7 -26 -59 -167 -236 -198 -247 -205 -262 -157 -310 l24 -25 291 0
c333 0 308 10 267 -103 -50 -138 -142 -246 -265 -310 -327 -172 -717 3 -808
363 -24 94 -15 233 20 324 97 253 363 406 622 357z m3073 -6 c197 -47 364
-209 416 -405 19 -72 19 -210 0 -285 -49 -187 -214 -351 -402 -400 -90 -24
-218 -20 -310 10 -393 125 -522 625 -237 919 l37 38 47 -89 c71 -135 130 -224
247 -371 10 -13 21 -7 73 38 l60 52 -48 62 c-27 33 -67 89 -90 123 -58 85
-155 270 -145 276 13 7 107 36 133 40 57 10 159 6 219 -8z m-2669 -300 c31
-64 58 -151 48 -160 -3 -3 -89 -4 -191 -3 l-187 3 118 148 117 148 33 -38 c18
-20 46 -65 62 -98z"/>
<path d="M1040 4320 l0 -80 480 0 480 0 0 80 0 80 -480 0 -480 0 0 -80z"/>
<path d="M560 4000 l0 -80 400 0 400 0 0 80 0 80 -400 0 -400 0 0 -80z"/>
<path d="M80 3120 l0 -80 240 0 240 0 0 80 0 80 -240 0 -240 0 0 -80z"/>
<path d="M80 2800 l0 -80 520 0 520 0 0 80 0 80 -520 0 -520 0 0 -80z"/>
</g>
</svg>
