<?xml version="1.0" standalone="no"?>
<!DOCTYPE svg PUBLIC "-//W3C//DTD SVG 20010904//EN"
 "http://www.w3.org/TR/2001/REC-SVG-20010904/DTD/svg10.dtd">
<svg version="1.0" xmlns="http://www.w3.org/2000/svg"
 width="512.000000pt" height="512.000000pt" viewBox="0 0 512.000000 512.000000"
 preserveAspectRatio="xMidYMid meet">

<g transform="translate(0.000000,512.000000) scale(0.100000,-0.100000)"
fill="#000000" stroke="none">
<path d="M2340 4147 c-138 -38 -224 -153 -224 -297 1 -74 4 -82 208 -595 224
-560 224 -561 179 -624 -11 -14 -211 -171 -446 -347 l-427 -321 -60 -7 c-76
-9 -124 -26 -202 -72 -134 -78 -294 -131 -482 -159 -103 -15 -130 -28 -140
-71 -7 -28 16 -79 39 -88 85 -32 413 51 613 155 62 32 131 63 153 69 70 19
127 -2 238 -85 150 -113 250 -155 365 -155 121 1 216 38 324 127 201 167 397
169 607 8 134 -102 239 -140 375 -133 77 4 97 9 171 45 56 27 112 65 169 115
47 41 99 82 117 91 67 35 128 15 235 -78 34 -30 92 -71 128 -89 120 -63 292
-97 415 -81 99 12 135 76 77 135 -28 27 -31 28 -108 23 -155 -10 -311 45 -434
153 -65 57 -139 99 -195 110 -22 4 -39 19 -62 55 -18 27 -33 50 -33 51 0 2 43
1 96 -1 124 -4 199 11 301 60 165 79 285 241 319 429 53 301 -138 596 -436
675 -72 19 -221 19 -295 0 -202 -53 -369 -217 -425 -419 l-16 -58 -204 308
c-112 170 -206 321 -208 336 -3 22 0 28 19 33 13 3 197 6 409 7 l385 3 63 34
c75 41 125 94 161 170 35 75 36 209 3 284 -32 71 -111 149 -185 183 l-62 29
-740 2 c-564 1 -751 -1 -785 -10z m1535 -173 c112 -58 137 -204 52 -301 -55
-63 -57 -63 -469 -63 -229 0 -388 -4 -411 -11 -47 -13 -106 -63 -123 -106 -18
-43 -18 -127 1 -163 8 -15 213 -328 455 -695 243 -367 444 -673 446 -680 3 -7
-10 -23 -28 -36 -18 -13 -63 -52 -100 -86 -91 -83 -162 -117 -255 -121 -64 -4
-80 -1 -135 26 -35 16 -94 53 -133 81 -133 98 -258 143 -395 144 -142 0 -245
-40 -401 -158 -53 -40 -114 -78 -134 -85 -55 -18 -151 -8 -218 23 -55 25 -215
135 -216 148 -1 4 177 140 394 303 260 195 405 310 425 338 41 57 64 138 57
205 -4 37 -69 214 -211 572 -113 285 -206 529 -206 541 0 47 39 107 83 129 42
21 49 21 762 19 708 -3 721 -3 760 -24z m387 -916 c322 -160 322 -616 0 -775
-67 -34 -84 -38 -171 -41 -113 -5 -182 15 -270 76 -166 113 -229 351 -143 535
36 77 115 163 183 198 80 41 119 49 225 46 94 -2 106 -5 176 -39z"/>
<path d="M972 3557 c-27 -29 -28 -77 -3 -108 l19 -24 342 -3 c374 -3 379 -2
401 55 12 32 -4 79 -32 93 -10 6 -161 10 -362 10 l-344 0 -21 -23z"/>
<path d="M672 3254 c-32 -22 -44 -58 -31 -91 20 -53 18 -52 387 -53 l343 0 24
25 c40 39 32 96 -16 120 -23 12 -88 15 -356 15 -285 0 -332 -2 -351 -16z"/>
<path d="M1623 3260 c-47 -19 -58 -92 -20 -128 22 -21 33 -22 183 -22 155 0
161 1 182 23 27 29 28 77 3 108 -18 23 -25 24 -173 26 -84 1 -163 -2 -175 -7z"/>
<path d="M341 2924 c-28 -35 -26 -67 3 -101 l24 -28 587 0 587 0 24 28 c29 34
31 66 3 101 l-20 26 -594 0 -594 0 -20 -26z"/>
<path d="M3555 1387 c-65 -22 -100 -44 -162 -100 -99 -91 -151 -126 -224 -148
-113 -34 -195 -10 -344 101 -123 92 -254 140 -387 140 -139 0 -260 -46 -393
-150 -94 -73 -117 -86 -179 -100 -88 -20 -211 25 -319 118 -97 82 -195 121
-308 122 -73 0 -129 -18 -216 -68 -136 -80 -322 -140 -496 -162 -69 -8 -86
-14 -105 -35 -30 -35 -28 -76 3 -105 22 -21 35 -24 83 -22 155 7 376 73 564
169 124 64 128 65 192 61 59 -4 72 -9 135 -53 164 -116 193 -134 248 -156 80
-30 210 -37 289 -14 72 20 119 47 204 116 95 76 176 111 270 117 122 7 213
-25 334 -118 140 -107 287 -153 412 -130 99 19 207 76 299 159 85 77 140 111
177 111 39 -1 100 -35 168 -93 122 -107 266 -164 436 -174 163 -9 214 10 214
82 0 62 -24 75 -137 75 -182 0 -290 39 -424 151 -41 34 -98 73 -127 87 -64 29
-152 37 -207 19z"/>
</g>
</svg>
