<?xml version="1.0" standalone="no"?>
<!DOCTYPE svg PUBLIC "-//W3C//DTD SVG 20010904//EN"
 "http://www.w3.org/TR/2001/REC-SVG-20010904/DTD/svg10.dtd">
<svg version="1.0" xmlns="http://www.w3.org/2000/svg"
 width="512.000000pt" height="512.000000pt" viewBox="0 0 512.000000 512.000000"
 preserveAspectRatio="xMidYMid meet">

<g transform="translate(0.000000,512.000000) scale(0.100000,-0.100000)"
fill="#000000" stroke="none">
<path d="M2895 5107 c-128 -43 -226 -136 -255 -244 -7 -27 -15 -50 -17 -52 -1
-2 -57 48 -122 113 -68 66 -136 124 -158 133 -54 23 -139 21 -188 -5 -48 -25
-436 -413 -459 -459 -21 -42 -21 -144 0 -186 23 -45 63 -86 106 -108 47 -24
146 -26 191 -3 18 9 83 66 144 127 l113 111 50 -49 c27 -27 50 -54 50 -60 0
-5 -96 -106 -213 -223 -237 -237 -226 -230 -328 -189 -30 13 -94 49 -143 80
-177 116 -259 147 -386 147 -127 0 -209 -31 -386 -147 -119 -77 -184 -102
-261 -103 l-63 0 0 -450 0 -450 1545 0 1546 0 -3 73 -3 72 -1467 3 -1468 2 0
304 0 304 33 6 c43 8 142 60 251 131 127 83 184 105 276 105 94 0 143 -20 307
-123 174 -110 205 -121 333 -121 126 0 163 13 313 110 56 36 131 79 167 97 59
29 73 32 160 32 87 0 101 -3 160 -32 36 -18 111 -61 167 -97 150 -97 187 -110
313 -110 126 0 163 13 313 110 165 105 219 128 312 132 100 5 154 -14 285 -99
116 -75 214 -127 258 -135 l32 -6 0 -304 0 -303 -147 -3 -148 -3 -3 -72 -3
-73 231 0 230 0 -2 448 -3 447 -75 6 c-88 6 -137 26 -256 104 -175 114 -257
145 -384 145 -127 0 -209 -31 -386 -147 -154 -100 -244 -123 -345 -88 -57 20
-199 106 -199 120 0 6 12 22 26 36 41 38 67 98 68 156 l0 51 46 7 c114 16 235
109 288 223 23 48 27 70 27 147 0 77 -4 99 -27 147 -61 132 -184 216 -324 224
-50 2 -94 -1 -119 -9z m169 -149 c81 -24 156 -126 156 -213 0 -115 -110 -225
-226 -225 -53 0 -105 21 -146 58 -102 92 -104 237 -5 330 59 57 138 74 221 50z
m-490 -328 c327 -326 314 -305 233 -387 l-42 -42 -60 20 c-84 28 -247 24 -320
-9 l-50 -23 117 118 118 118 -160 160 -160 160 -158 -158 c-141 -141 -161
-157 -191 -157 -46 0 -71 24 -71 69 0 34 13 50 193 227 105 106 199 194 207
197 8 3 24 3 35 0 11 -3 150 -135 309 -293z"/>
<path d="M3810 3825 l0 -75 75 0 76 0 -3 73 -3 72 -72 3 -73 3 0 -76z"/>
<path d="M1395 3825 c-19 -30 -35 -58 -35 -63 0 -11 187 -123 271 -162 85 -39
183 -60 289 -60 114 0 208 22 310 71 95 45 250 140 250 152 0 11 -68 117 -76
117 -3 0 -57 -31 -120 -69 -161 -98 -219 -116 -369 -115 -146 0 -196 17 -363
117 -61 37 -113 67 -116 67 -4 0 -22 -25 -41 -55z"/>
<path d="M4107 3744 c-4 -4 -7 -38 -7 -76 l0 -68 80 0 81 0 -3 73 -3 72 -70 3
c-39 1 -74 0 -78 -4z"/>
<path d="M3807 3234 c-4 -4 -7 -38 -7 -76 l0 -68 80 0 81 0 -3 73 -3 72 -70 3
c-39 1 -74 0 -78 -4z"/>
<path d="M1518 2696 c-152 -44 -262 -178 -275 -334 l-6 -69 -209 120 c-192
111 -214 121 -269 125 -73 5 -133 -15 -176 -61 -33 -35 -283 -463 -301 -517
-57 -163 88 -325 258 -289 83 18 117 51 204 202 43 76 80 137 82 137 5 0 124
-72 124 -76 0 -2 -212 -370 -470 -818 -509 -880 -497 -856 -470 -956 15 -56
91 -134 147 -149 88 -25 174 -1 229 62 28 33 562 941 577 982 4 11 136 -65
157 -90 27 -32 11 -72 -116 -290 -156 -269 -157 -273 -152 -351 7 -113 87
-194 199 -202 73 -5 133 15 176 61 31 31 421 696 450 767 24 55 18 133 -13
190 -29 53 -48 68 -196 154 -95 56 -118 77 -118 111 0 19 106 212 122 221 5 3
93 -43 196 -102 299 -173 306 -176 370 -177 64 0 121 24 164 70 27 28 270 441
295 500 30 72 10 178 -45 237 -82 88 -242 88 -324 0 -14 -16 -56 -81 -93 -144
-37 -63 -70 -119 -74 -123 -6 -6 -169 78 -188 97 -2 1 24 21 56 44 236 166
202 527 -62 647 -70 32 -179 41 -249 21z m166 -148 c55 -17 131 -91 145 -143
25 -91 4 -171 -60 -232 -118 -112 -310 -66 -364 86 -26 76 -16 144 32 209 57
76 154 108 247 80z m-747 -255 c92 -53 170 -98 172 -100 3 -2 -5 -13 -16 -26
-11 -12 -30 -39 -42 -59 -13 -21 -24 -38 -26 -38 -2 0 -58 32 -124 70 -66 39
-123 70 -128 70 -5 0 -55 -81 -112 -179 -56 -99 -112 -187 -122 -197 -45 -40
-119 -7 -119 53 0 26 240 453 272 485 34 34 70 22 245 -79z m706 -408 c195
-113 359 -205 365 -205 5 0 56 80 112 178 56 97 109 185 118 195 37 42 122 7
122 -51 0 -28 -233 -448 -270 -486 -11 -11 -32 -19 -47 -19 -18 0 -154 72
-385 206 -197 114 -361 207 -366 207 -8 0 -72 -106 -72 -120 0 -4 26 -23 58
-40 31 -18 59 -34 61 -36 2 -1 -24 -50 -56 -107 -86 -150 -96 -186 -71 -268
18 -61 69 -111 170 -169 140 -80 158 -95 158 -134 0 -26 -49 -120 -201 -382
-110 -192 -210 -357 -221 -366 -45 -40 -118 -8 -118 51 0 19 43 103 124 243
163 282 158 271 158 338 0 108 -39 157 -191 245 -143 81 -175 107 -201 160
-18 37 -21 58 -18 113 4 66 7 72 166 347 90 154 170 286 179 293 37 27 72 12
426 -193z m-878 -645 c8 -16 29 -45 46 -64 l30 -35 -276 -478 c-152 -263 -285
-486 -296 -495 -12 -10 -32 -18 -46 -18 -30 0 -73 42 -73 72 0 13 53 116 118
228 65 113 199 343 296 513 98 169 179 307 182 307 2 0 10 -13 19 -30z"/>
<path d="M3875 2383 c-165 -60 -266 -215 -252 -387 l6 -72 -44 -12 c-64 -17
-108 -62 -165 -167 -27 -51 -50 -97 -50 -102 0 -5 29 -23 65 -41 l65 -32 41
83 c23 45 48 90 57 100 34 38 69 24 445 -175 199 -105 372 -200 385 -211 45
-42 12 -127 -50 -127 -11 0 -135 61 -276 136 -142 75 -264 140 -273 145 -13 6
-31 -22 -97 -151 -73 -141 -82 -165 -82 -212 0 -65 26 -123 71 -163 19 -17 84
-56 146 -88 124 -65 136 -76 136 -116 0 -27 -236 -487 -276 -537 -38 -48 -127
-18 -127 43 0 13 34 89 75 168 80 154 88 186 63 267 -20 66 -72 112 -208 184
-143 75 -153 83 -188 143 -20 34 -26 58 -26 105 0 54 5 72 52 162 29 55 52
103 52 107 0 9 -102 67 -117 67 -19 0 -112 -182 -130 -254 -13 -54 -14 -78 -6
-129 25 -148 93 -227 285 -330 71 -37 133 -77 139 -89 14 -27 7 -62 -26 -120
l-27 -48 -117 0 -117 0 -13 50 c-17 65 -75 154 -135 207 -265 234 -678 81
-739 -272 -22 -130 28 -281 126 -379 238 -238 632 -146 743 173 l23 66 74 3
73 3 -4 -59 c-10 -137 86 -242 222 -242 62 0 120 26 162 71 37 41 298 528 314
588 19 70 -9 159 -67 212 -15 15 -81 54 -146 89 -117 62 -137 79 -137 121 0
23 69 159 82 159 4 0 95 -47 203 -104 108 -58 212 -110 231 -116 19 -7 60 -10
91 -8 l57 3 18 -90 c10 -49 20 -100 23 -112 4 -18 -3 -25 -43 -44 -61 -29
-162 -130 -191 -192 -89 -185 -58 -382 83 -522 180 -179 452 -179 632 0 177
176 177 452 -1 630 -83 83 -194 134 -295 135 l-36 0 -31 163 c-25 126 -31 177
-26 229 5 59 3 74 -21 122 -32 65 -51 78 -264 191 -147 77 -151 80 -130 95 60
40 121 108 151 169 28 59 32 75 32 156 0 81 -3 97 -32 157 -39 82 -100 145
-178 183 -76 38 -202 45 -280 18z m210 -152 c113 -52 164 -178 116 -287 -42
-94 -108 -138 -206 -138 -200 0 -300 237 -159 378 64 64 169 84 249 47z
m-1123 -1501 c69 -26 122 -70 158 -134 17 -28 30 -54 30 -58 0 -4 -64 -9 -142
-10 l-143 -3 -3 -72 -3 -73 146 0 c112 0 145 -3 145 -13 0 -7 -15 -37 -32 -67
-102 -170 -329 -199 -468 -60 -107 107 -117 272 -26 392 80 104 217 144 338
98z m1845 -16 c101 -48 158 -142 158 -264 0 -123 -56 -214 -163 -267 -81 -40
-183 -40 -264 0 -198 97 -224 378 -46 507 50 37 45 45 78 -125 13 -66 24 -122
26 -124 7 -9 144 23 144 34 0 7 -11 67 -25 135 -14 68 -25 127 -25 132 0 14
57 0 117 -28z"/>
</g>
</svg>
